%TF.GenerationSoftware,KiCad,Pcbnew,10.0.5*%
%TF.CreationDate,2026-09-14T00:22:05-05:00*%
%TF.ProjectId,PS-SegmentMonitoringBoard,50532d53-6567-46d6-956e-744d6f6e6974,rev?*%
%TF.SameCoordinates,Original*%
%TF.FileFunction,Copper,L4,Bot*%
%TF.FilePolarity,Positive*%
%FSLAX46Y46*%
G04 Gerber Fmt 4.6, Leading zero omitted, Abs format (unit mm)*
G04 Created by KiCad (PCBNEW 10.0.5) date 2026-09-14 00:22:05*
%MOMM*%
%LPD*%
G01*
G04 APERTURE LIST*
G04 Aperture macros list*
%AMRoundRect*
0 Rectangle with rounded corners*
0 $1 Rounding radius*
0 $2 $3 $4 $5 $6 $7 $8 $9 X,Y pos of 4 corners*
0 Add a 4 corners polygon primitive as box body*
4,1,4,$2,$3,$4,$5,$6,$7,$8,$9,$2,$3,0*
0 Add four circle primitives for the rounded corners*
1,1,$1+$1,$2,$3*
1,1,$1+$1,$4,$5*
1,1,$1+$1,$6,$7*
1,1,$1+$1,$8,$9*
0 Add four rect primitives between the rounded corners*
20,1,$1+$1,$2,$3,$4,$5,0*
20,1,$1+$1,$4,$5,$6,$7,0*
20,1,$1+$1,$6,$7,$8,$9,0*
20,1,$1+$1,$8,$9,$2,$3,0*%
G04 Aperture macros list end*
%TA.AperFunction,ComponentPad*%
%ADD10C,3.000000*%
%TD*%
%TA.AperFunction,ComponentPad*%
%ADD11C,1.875000*%
%TD*%
%TA.AperFunction,ComponentPad*%
%ADD12R,1.875000X1.875000*%
%TD*%
%TA.AperFunction,ComponentPad*%
%ADD13RoundRect,0.250000X-0.600000X0.850000X-0.600000X-0.850000X0.600000X-0.850000X0.600000X0.850000X0*%
%TD*%
%TA.AperFunction,ComponentPad*%
%ADD14O,1.700000X2.200000*%
%TD*%
%TA.AperFunction,SMDPad,CuDef*%
%ADD15RoundRect,0.237500X-0.237500X0.300000X-0.237500X-0.300000X0.237500X-0.300000X0.237500X0.300000X0*%
%TD*%
%TA.AperFunction,SMDPad,CuDef*%
%ADD16R,0.600000X1.850000*%
%TD*%
%TA.AperFunction,ViaPad*%
%ADD17C,0.600000*%
%TD*%
%TA.AperFunction,Conductor*%
%ADD18C,0.200000*%
%TD*%
%TA.AperFunction,Conductor*%
%ADD19C,0.300000*%
%TD*%
G04 APERTURE END LIST*
D10*
%TO.P,TP7,1,1_1*%
%TO.N,/Cell_Balancing/V0*%
X85520000Y-122460000D03*
%TD*%
D11*
%TO.P,J1,1,Pin_1_1*%
%TO.N,/Cell_Balancing/V8*%
X85690000Y-82570000D03*
%TO.P,J1,2,Pin_2_2*%
%TO.N,/Cell_Balancing/V7*%
X85690000Y-85070000D03*
%TO.P,J1,3,Pin_3_3*%
%TO.N,/Cell_Balancing/V6*%
X85690000Y-87570000D03*
%TO.P,J1,4,Pin_4_4*%
%TO.N,/Cell_Balancing/V5*%
X85690000Y-90070000D03*
D12*
%TO.P,J1,5,Pin_5_5*%
%TO.N,/Cell_Balancing/V4*%
X85690000Y-92570000D03*
D11*
%TO.P,J1,6,Pin_6_6*%
%TO.N,/Cell_Balancing/V3*%
X83190000Y-92570000D03*
%TO.P,J1,7,Pin_7_7*%
%TO.N,/Cell_Balancing/V2*%
X83190000Y-90070000D03*
%TO.P,J1,8,Pin_8_8*%
%TO.N,/Cell_Balancing/V1*%
X83190000Y-87570000D03*
%TO.P,J1,9,Pin_9_9*%
%TO.N,/Cell_Balancing/V0*%
X83190000Y-85070000D03*
%TO.P,J1,10,Pin_10_10*%
%TO.N,unconnected-(J1-Pin_10-Pad10)*%
X83190000Y-82570000D03*
%TD*%
D10*
%TO.P,TP1,1,1_1*%
%TO.N,AVSS*%
X79710000Y-129320000D03*
%TD*%
%TO.P,TP6,1,1_1*%
%TO.N,/extraCells*%
X113650000Y-68770000D03*
%TD*%
D13*
%TO.P,J3,1,Pin_1_1*%
%TO.N,/lowSideIsolation/isolatedCOMLP*%
X111505000Y-132350000D03*
D14*
%TO.P,J3,2,Pin_2_2*%
%TO.N,/lowSideIsolation/isolatedCOMLN*%
X114005000Y-132350000D03*
%TD*%
D11*
%TO.P,J4,1,Pin_1_1*%
%TO.N,/Thermistors/TEMP_7*%
X148849000Y-97690000D03*
%TO.P,J4,2,Pin_2_2*%
%TO.N,/Thermistors/TEMP_6*%
X148849000Y-95190000D03*
%TO.P,J4,3,Pin_3_3*%
%TO.N,/Thermistors/TEMP_5*%
X148849000Y-92690000D03*
%TO.P,J4,4,Pin_4_4*%
%TO.N,/Thermistors/TEMP_4*%
X148849000Y-90190000D03*
%TO.P,J4,5,Pin_5_5*%
%TO.N,/Thermistors/TEMP_3*%
X148849000Y-87690000D03*
%TO.P,J4,6,Pin_6_6*%
%TO.N,/Thermistors/TEMP_2*%
X148849000Y-85190000D03*
%TO.P,J4,7,Pin_7_7*%
%TO.N,/Thermistors/TEMP_1*%
X148849000Y-82690000D03*
D12*
%TO.P,J4,8,Pin_8_8*%
%TO.N,/Thermistors/TEMP_0*%
X148849000Y-80190000D03*
D11*
%TO.P,J4,9,Pin_9_9*%
%TO.N,AVSS*%
X151349000Y-97690000D03*
%TO.P,J4,10,Pin_10_10*%
X151349000Y-95190000D03*
%TO.P,J4,11,Pin_11_11*%
X151349000Y-92690000D03*
%TO.P,J4,12,Pin_12_12*%
X151349000Y-90190000D03*
%TO.P,J4,13,Pin_13_13*%
X151349000Y-87690000D03*
%TO.P,J4,14,Pin_14_14*%
X151349000Y-85190000D03*
%TO.P,J4,15,Pin_15_15*%
X151349000Y-82690000D03*
%TO.P,J4,16,Pin_16_16*%
X151349000Y-80190000D03*
%TD*%
D13*
%TO.P,J2,1,Pin_1_1*%
%TO.N,/highSideIsolation/isolatedCOMHN*%
X121825000Y-132365000D03*
D14*
%TO.P,J2,2,Pin_2_2*%
%TO.N,/highSideIsolation/isolatedCOMHP*%
X124325000Y-132365000D03*
%TO.P,J2,3,Pin_3_3*%
%TO.N,unconnected-(J2-Pin_3-Pad3)*%
X126825000Y-132365000D03*
%TD*%
D10*
%TO.P,TP5,1,1_1*%
%TO.N,/TSREF*%
X131470000Y-71030000D03*
%TD*%
D15*
%TO.P,C12,1*%
%TO.N,/highSideIsolation/preIsolationCOMHN*%
X123020000Y-116707500D03*
%TO.P,C12,2*%
%TO.N,Net-(C12-Pad2)*%
X123020000Y-118432500D03*
%TD*%
D16*
%TO.P,L2,1,1_1*%
%TO.N,Net-(C27-Pad2)*%
X112095000Y-121345000D03*
%TO.P,L2,2,2_2*%
%TO.N,Net-(C28-Pad2)*%
X113365000Y-121345000D03*
%TO.P,L2,3,3_3*%
%TO.N,/lowSideIsolation/isolatedCOMLN*%
X113365000Y-125895000D03*
%TO.P,L2,4,4_4*%
%TO.N,/lowSideIsolation/isolatedCOMLP*%
X112095000Y-125895000D03*
%TD*%
D15*
%TO.P,C27,1*%
%TO.N,/lowSideIsolation/preIsolationCOMHP*%
X111890000Y-116837500D03*
%TO.P,C27,2*%
%TO.N,Net-(C27-Pad2)*%
X111890000Y-118562500D03*
%TD*%
%TO.P,C28,1*%
%TO.N,/lowSideIsolation/preIsolationCOMHN*%
X113390000Y-116857500D03*
%TO.P,C28,2*%
%TO.N,Net-(C28-Pad2)*%
X113390000Y-118582500D03*
%TD*%
D16*
%TO.P,L1,1,1_1*%
%TO.N,Net-(C12-Pad2)*%
X123060000Y-121150000D03*
%TO.P,L1,2,2_2*%
%TO.N,Net-(C11-Pad2)*%
X124330000Y-121150000D03*
%TO.P,L1,3,3_3*%
%TO.N,/highSideIsolation/isolatedCOMHP*%
X124330000Y-125700000D03*
%TO.P,L1,4,4_4*%
%TO.N,/highSideIsolation/isolatedCOMHN*%
X123060000Y-125700000D03*
%TD*%
D15*
%TO.P,C11,1*%
%TO.N,/highSideIsolation/preIsolationCOMHP*%
X124520000Y-116707500D03*
%TO.P,C11,2*%
%TO.N,Net-(C11-Pad2)*%
X124520000Y-118432500D03*
%TD*%
D17*
%TO.N,Net-(C26-Pad2)*%
X110788235Y-116113235D03*
X110775000Y-119000000D03*
%TO.N,/TSREF*%
X132690000Y-93780000D03*
X132750000Y-83700000D03*
X132830000Y-78570000D03*
X132760000Y-88620000D03*
X130855369Y-98179279D03*
%TO.N,/Cell_Balancing/V8*%
X92400000Y-60610000D03*
X143880500Y-101050000D03*
%TO.N,/lowSideIsolation/preIsolationCOMHN*%
X113370521Y-114750521D03*
%TO.N,/lowSideIsolation/preIsolationCOMHP*%
X112775150Y-114216164D03*
%TO.N,/lowSideIsolation/isolatedCOMLP*%
X112125000Y-127475000D03*
%TO.N,/lowSideIsolation/isolatedCOMLN*%
X113425000Y-127500000D03*
%TO.N,Net-(C10-Pad2)*%
X125541205Y-118860917D03*
X125549265Y-116040735D03*
%TO.N,/highSideIsolation/preIsolationCOMHP*%
X123390000Y-114720289D03*
%TO.N,/highSideIsolation/preIsolationCOMHN*%
X122790000Y-115260000D03*
%TO.N,/highSideIsolation/isolatedCOMHN*%
X123010000Y-127150000D03*
%TO.N,/highSideIsolation/isolatedCOMHP*%
X124340000Y-127170000D03*
%TO.N,/extraCells*%
X111730000Y-84260000D03*
X113290000Y-82780000D03*
%TO.N,/CVDD*%
X119750052Y-93143376D03*
X122143376Y-90749948D03*
%TD*%
%TO.N,Net-(C26-Pad2)*%
D18*
X110788235Y-118963235D02*
X110788235Y-116113235D01*
X110775000Y-119000000D02*
X110775000Y-118976470D01*
X110775000Y-118976470D02*
X110788235Y-118963235D01*
%TO.N,/TSREF*%
X131550000Y-87410000D02*
X132760000Y-88620000D01*
X131530000Y-89850000D02*
X131530000Y-92620000D01*
X131520000Y-82470000D02*
X132750000Y-83700000D01*
X131520000Y-79880000D02*
X131520000Y-82470000D01*
X132750000Y-83700000D02*
X131550000Y-84900000D01*
X131530000Y-92620000D02*
X132690000Y-93780000D01*
X132760000Y-88620000D02*
X131530000Y-89850000D01*
X131530000Y-94940000D02*
X132690000Y-93780000D01*
X131530000Y-97510000D02*
X131530000Y-94940000D01*
X132830000Y-78570000D02*
X131520000Y-79880000D01*
X131550000Y-84900000D02*
X131550000Y-87410000D01*
X130855369Y-98179279D02*
X130860721Y-98179279D01*
X130860721Y-98179279D02*
X131530000Y-97510000D01*
%TO.N,/Cell_Balancing/V8*%
D19*
X143850500Y-101020000D02*
X143880500Y-101050000D01*
X130980000Y-101020000D02*
X143850500Y-101020000D01*
X92440000Y-60570000D02*
X101754415Y-60570000D01*
X101754415Y-60570000D02*
X125940317Y-84755902D01*
X92400000Y-60610000D02*
X92440000Y-60570000D01*
X125940317Y-94960000D02*
X125950000Y-94950317D01*
X125940317Y-84755902D02*
X125940317Y-94960000D01*
X125950000Y-94950317D02*
X125950000Y-95990000D01*
X125950000Y-95990000D02*
X130980000Y-101020000D01*
%TO.N,/lowSideIsolation/preIsolationCOMHN*%
D18*
X112855001Y-116322501D02*
X112855001Y-114983198D01*
X112855001Y-114983198D02*
X113087678Y-114750521D01*
X113390000Y-116857500D02*
X112855001Y-116322501D01*
X113087678Y-114750521D02*
X113370521Y-114750521D01*
%TO.N,/lowSideIsolation/preIsolationCOMHP*%
X112769479Y-114432322D02*
X112404999Y-114796802D01*
X112404999Y-114796802D02*
X112404999Y-116322501D01*
X112404999Y-116322501D02*
X111890000Y-116837500D01*
X112775150Y-114216164D02*
X112769479Y-114221835D01*
X112769479Y-114221835D02*
X112769479Y-114432322D01*
%TO.N,/lowSideIsolation/isolatedCOMLP*%
X112125000Y-127475000D02*
X112125000Y-125925000D01*
X112125000Y-125925000D02*
X112095000Y-125895000D01*
%TO.N,/lowSideIsolation/isolatedCOMLN*%
X113375000Y-127375000D02*
X113365000Y-127365000D01*
X113425000Y-127500000D02*
X113375000Y-127450000D01*
X113365000Y-127365000D02*
X113365000Y-125895000D01*
X113375000Y-127450000D02*
X113375000Y-127375000D01*
%TO.N,Net-(C10-Pad2)*%
X125549265Y-118852857D02*
X125541205Y-118860917D01*
X125549265Y-116040735D02*
X125549265Y-118852857D01*
%TO.N,/highSideIsolation/preIsolationCOMHP*%
X123390000Y-115294314D02*
X124145000Y-116049315D01*
X124145000Y-116332500D02*
X124520000Y-116707500D01*
X123390000Y-114720289D02*
X123390000Y-115294314D01*
X124145000Y-116049315D02*
X124145000Y-116332500D01*
%TO.N,/highSideIsolation/preIsolationCOMHN*%
X123745000Y-116215000D02*
X123745000Y-116375000D01*
X123412500Y-116707500D02*
X123020000Y-116707500D01*
X123745000Y-116375000D02*
X123412500Y-116707500D01*
X122790000Y-115260000D02*
X123745000Y-116215000D01*
%TO.N,/highSideIsolation/isolatedCOMHN*%
X123010000Y-125750000D02*
X123060000Y-125700000D01*
X123010000Y-127150000D02*
X123010000Y-125750000D01*
%TO.N,/highSideIsolation/isolatedCOMHP*%
X124340000Y-127170000D02*
X124340000Y-125710000D01*
X124340000Y-125710000D02*
X124330000Y-125700000D01*
%TO.N,/extraCells*%
X113100000Y-82970000D02*
X113040000Y-82970000D01*
X111750000Y-84260000D02*
X111730000Y-84260000D01*
X113040000Y-82970000D02*
X111750000Y-84260000D01*
X113290000Y-82780000D02*
X113100000Y-82970000D01*
%TO.N,/CVDD*%
X122143376Y-90749948D02*
X122143376Y-90750052D01*
X122143376Y-90750052D02*
X119750052Y-93143376D01*
%TO.N,Net-(C12-Pad2)*%
X123020000Y-118432500D02*
X123020000Y-121110000D01*
X123020000Y-121110000D02*
X123060000Y-121150000D01*
%TO.N,Net-(C27-Pad2)*%
X112095000Y-121345000D02*
X112095000Y-118767500D01*
X112095000Y-118767500D02*
X111890000Y-118562500D01*
%TO.N,Net-(C28-Pad2)*%
X113365000Y-118607500D02*
X113390000Y-118582500D01*
X113365000Y-121345000D02*
X113365000Y-118607500D01*
%TO.N,Net-(C11-Pad2)*%
X124330000Y-118622500D02*
X124520000Y-118432500D01*
X124330000Y-121150000D02*
X124330000Y-118622500D01*
%TD*%
M02*
