%TF.GenerationSoftware,KiCad,Pcbnew,10.0.5*%
%TF.CreationDate,2026-09-12T21:40:47-05:00*%
%TF.ProjectId,PS-SegmentMonitoringBoard,50532d53-6567-46d6-956e-744d6f6e6974,rev?*%
%TF.SameCoordinates,Original*%
%TF.FileFunction,Soldermask,Bot*%
%TF.FilePolarity,Negative*%
%FSLAX46Y46*%
G04 Gerber Fmt 4.6, Leading zero omitted, Abs format (unit mm)*
G04 Created by KiCad (PCBNEW 10.0.5) date 2026-09-12 21:40:47*
%MOMM*%
%LPD*%
G01*
G04 APERTURE LIST*
G04 Aperture macros list*
%AMRoundRect*
0 Rectangle with rounded corners*
0 $1 Rounding radius*
0 $2 $3 $4 $5 $6 $7 $8 $9 X,Y pos of 4 corners*
0 Add a 4 corners polygon primitive as box body*
4,1,4,$2,$3,$4,$5,$6,$7,$8,$9,$2,$3,0*
0 Add four circle primitives for the rounded corners*
1,1,$1+$1,$2,$3*
1,1,$1+$1,$4,$5*
1,1,$1+$1,$6,$7*
1,1,$1+$1,$8,$9*
0 Add four rect primitives between the rounded corners*
20,1,$1+$1,$2,$3,$4,$5,0*
20,1,$1+$1,$4,$5,$6,$7,0*
20,1,$1+$1,$6,$7,$8,$9,0*
20,1,$1+$1,$8,$9,$2,$3,0*%
G04 Aperture macros list end*
%ADD10C,1.600000*%
%ADD11C,2.370000*%
%ADD12R,1.800000X1.800000*%
%ADD13C,1.800000*%
%ADD14C,3.000000*%
%ADD15C,3.200000*%
%ADD16C,1.700000*%
%ADD17RoundRect,0.250000X-0.600000X0.850000X-0.600000X-0.850000X0.600000X-0.850000X0.600000X0.850000X0*%
%ADD18O,1.700000X2.200000*%
%ADD19RoundRect,0.237500X-0.237500X0.300000X-0.237500X-0.300000X0.237500X-0.300000X0.237500X0.300000X0*%
%ADD20R,0.600000X1.850000*%
G04 APERTURE END LIST*
D10*
%TO.C,J1*%
X78487500Y-80110000D03*
D11*
X78487500Y-97610000D03*
D12*
X85667500Y-97610000D03*
D13*
X85667500Y-95110000D03*
X85667500Y-92610000D03*
X85667500Y-90110000D03*
X85667500Y-87610000D03*
X85667500Y-85110000D03*
X85667500Y-82610000D03*
X85667500Y-80110000D03*
%TD*%
D14*
%TO.C,TP7*%
X87730000Y-122740000D03*
%TD*%
D15*
%TO.C,H3*%
X153210000Y-67930000D03*
%TD*%
%TO.C,H2*%
X79190000Y-138470000D03*
%TD*%
D10*
%TO.C,J4*%
X153750000Y-97590000D03*
D11*
X153750000Y-80090000D03*
D12*
X146570000Y-80090000D03*
D13*
X146570000Y-82590000D03*
X146570000Y-85090000D03*
X146570000Y-87590000D03*
X146570000Y-90090000D03*
X146570000Y-92590000D03*
X146570000Y-95090000D03*
X146570000Y-97590000D03*
%TD*%
D14*
%TO.C,TP1*%
X78420000Y-128980000D03*
%TD*%
%TO.C,TP6*%
X113650000Y-68770000D03*
%TD*%
D15*
%TO.C,H1*%
X153210000Y-138470000D03*
%TD*%
D16*
%TO.C,J3*%
X114005000Y-139530000D03*
X111505000Y-139530000D03*
D17*
X111505000Y-132350000D03*
D18*
X114005000Y-132350000D03*
%TD*%
D16*
%TO.C,J2*%
X126825000Y-139545000D03*
X121825000Y-139545000D03*
D17*
X121825000Y-132365000D03*
D18*
X124325000Y-132365000D03*
X126825000Y-132365000D03*
%TD*%
D15*
%TO.C,H4*%
X79190000Y-67930000D03*
%TD*%
D14*
%TO.C,TP5*%
X131500000Y-68770000D03*
%TD*%
D19*
%TO.C,C12*%
X123020000Y-116707500D03*
X123020000Y-118432500D03*
%TD*%
D20*
%TO.C,L2*%
X112095000Y-121345000D03*
X113365000Y-121345000D03*
X113365000Y-125895000D03*
X112095000Y-125895000D03*
%TD*%
D19*
%TO.C,C27*%
X111890000Y-116837500D03*
X111890000Y-118562500D03*
%TD*%
%TO.C,C28*%
X113390000Y-116857500D03*
X113390000Y-118582500D03*
%TD*%
D20*
%TO.C,L1*%
X123060000Y-121150000D03*
X124330000Y-121150000D03*
X124330000Y-125700000D03*
X123060000Y-125700000D03*
%TD*%
D19*
%TO.C,C11*%
X124520000Y-116707500D03*
X124520000Y-118432500D03*
%TD*%
M02*
