%TF.GenerationSoftware,KiCad,Pcbnew,10.0.5*%
%TF.CreationDate,2026-09-13T17:55:22-05:00*%
%TF.ProjectId,PS-SegmentMonitoringBoard,50532d53-6567-46d6-956e-744d6f6e6974,rev?*%
%TF.SameCoordinates,Original*%
%TF.FileFunction,Soldermask,Top*%
%TF.FilePolarity,Negative*%
%FSLAX46Y46*%
G04 Gerber Fmt 4.6, Leading zero omitted, Abs format (unit mm)*
G04 Created by KiCad (PCBNEW 10.0.5) date 2026-09-13 17:55:22*
%MOMM*%
%LPD*%
G01*
G04 APERTURE LIST*
G04 Aperture macros list*
%AMRoundRect*
0 Rectangle with rounded corners*
0 $1 Rounding radius*
0 $2 $3 $4 $5 $6 $7 $8 $9 X,Y pos of 4 corners*
0 Add a 4 corners polygon primitive as box body*
4,1,4,$2,$3,$4,$5,$6,$7,$8,$9,$2,$3,0*
0 Add four circle primitives for the rounded corners*
1,1,$1+$1,$2,$3*
1,1,$1+$1,$4,$5*
1,1,$1+$1,$6,$7*
1,1,$1+$1,$8,$9*
0 Add four rect primitives between the rounded corners*
20,1,$1+$1,$2,$3,$4,$5,0*
20,1,$1+$1,$4,$5,$6,$7,0*
20,1,$1+$1,$6,$7,$8,$9,0*
20,1,$1+$1,$8,$9,$2,$3,0*%
G04 Aperture macros list end*
%ADD10C,0.000000*%
%ADD11RoundRect,0.237500X-0.250000X-0.237500X0.250000X-0.237500X0.250000X0.237500X-0.250000X0.237500X0*%
%ADD12RoundRect,0.237500X-0.237500X0.300000X-0.237500X-0.300000X0.237500X-0.300000X0.237500X0.300000X0*%
%ADD13RoundRect,0.237500X-0.300000X-0.237500X0.300000X-0.237500X0.300000X0.237500X-0.300000X0.237500X0*%
%ADD14RoundRect,0.237500X0.300000X0.237500X-0.300000X0.237500X-0.300000X-0.237500X0.300000X-0.237500X0*%
%ADD15RoundRect,0.237500X-0.237500X0.250000X-0.237500X-0.250000X0.237500X-0.250000X0.237500X0.250000X0*%
%ADD16RoundRect,0.237500X0.237500X-0.250000X0.237500X0.250000X-0.237500X0.250000X-0.237500X-0.250000X0*%
%ADD17R,2.600000X1.060000*%
%ADD18R,5.700000X5.632000*%
%ADD19C,3.000000*%
%ADD20C,3.200000*%
%ADD21RoundRect,0.237500X0.237500X-0.300000X0.237500X0.300000X-0.237500X0.300000X-0.237500X-0.300000X0*%
%ADD22RoundRect,0.249999X-0.450001X-1.425001X0.450001X-1.425001X0.450001X1.425001X-0.450001X1.425001X0*%
%ADD23C,1.650000*%
%ADD24C,2.478910*%
%ADD25C,1.875000*%
%ADD26R,1.875000X1.875000*%
%ADD27C,1.600000*%
%ADD28C,2.370000*%
%ADD29R,1.800000X1.800000*%
%ADD30C,1.800000*%
%ADD31R,0.850000X1.700000*%
%ADD32C,1.700000*%
%ADD33RoundRect,0.250000X-0.600000X0.850000X-0.600000X-0.850000X0.600000X-0.850000X0.600000X0.850000X0*%
%ADD34O,1.700000X2.200000*%
%ADD35R,0.300000X1.475000*%
%ADD36R,1.475000X0.300000*%
%ADD37R,6.500000X6.500000*%
%ADD38RoundRect,0.237500X0.250000X0.237500X-0.250000X0.237500X-0.250000X-0.237500X0.250000X-0.237500X0*%
%ADD39RoundRect,0.250000X0.475000X-0.337500X0.475000X0.337500X-0.475000X0.337500X-0.475000X-0.337500X0*%
G04 APERTURE END LIST*
D10*
%TO.C,LOGO1*%
G36*
X134970639Y-140826515D02*
G01*
X134995838Y-141960443D01*
X136016373Y-141974086D01*
X137036909Y-141987729D01*
X137036909Y-142238669D01*
X137036909Y-142489610D01*
X135700596Y-142489610D01*
X134364283Y-142489610D01*
X134377679Y-141091098D01*
X134391076Y-139692586D01*
X134668258Y-139692586D01*
X134945441Y-139692586D01*
X134970639Y-140826515D01*
G37*
G36*
X147835718Y-140339808D02*
G01*
X147835718Y-140566594D01*
X147054567Y-140566594D01*
X146273416Y-140566594D01*
X146273416Y-140818578D01*
X146273416Y-141070562D01*
X147054567Y-141070562D01*
X147835718Y-141070562D01*
X147835718Y-141776118D01*
X147835718Y-142481673D01*
X146827781Y-142481673D01*
X145819845Y-142481673D01*
X145819845Y-142254888D01*
X145819845Y-142028102D01*
X146600996Y-142028102D01*
X147382146Y-142028102D01*
X147382146Y-141776118D01*
X147382146Y-141524134D01*
X146600996Y-141524134D01*
X145819845Y-141524134D01*
X145819845Y-140818578D01*
X145819845Y-140113023D01*
X146827781Y-140113023D01*
X147835718Y-140113023D01*
X147835718Y-140339808D01*
G37*
G36*
X140846673Y-139676480D02*
G01*
X141043457Y-139692586D01*
X141056853Y-141091098D01*
X141070249Y-142489610D01*
X140743523Y-142489610D01*
X140416797Y-142489610D01*
X140402548Y-141922646D01*
X140388298Y-141355681D01*
X139293827Y-141342104D01*
X138199355Y-141328526D01*
X138185096Y-141896469D01*
X138170838Y-142464411D01*
X137855056Y-142479436D01*
X137539274Y-142494461D01*
X137552675Y-141093524D01*
X137566076Y-139692586D01*
X137822536Y-139677635D01*
X138021635Y-139682471D01*
X138130208Y-139725030D01*
X138135573Y-139730854D01*
X138161120Y-139808183D01*
X138183896Y-139960853D01*
X138200721Y-140163411D01*
X138206692Y-140300171D01*
X138221234Y-140801316D01*
X139304766Y-140801316D01*
X140388298Y-140801316D01*
X140402597Y-140260084D01*
X140411906Y-140002165D01*
X140431616Y-139829389D01*
X140473626Y-139726119D01*
X140549835Y-139676715D01*
X140672143Y-139665540D01*
X140846673Y-139676480D01*
G37*
G36*
X143076234Y-139672490D02*
G01*
X143399362Y-139676334D01*
X143867570Y-139684803D01*
X144245500Y-139697479D01*
X144543668Y-139718466D01*
X144772589Y-139751867D01*
X144942779Y-139801788D01*
X145064753Y-139872331D01*
X145149027Y-139967602D01*
X145206117Y-140091704D01*
X145246538Y-140248742D01*
X145275197Y-140408466D01*
X145285626Y-140610924D01*
X145262033Y-140833415D01*
X145211540Y-141041958D01*
X145141267Y-141202576D01*
X145097216Y-141257770D01*
X145032975Y-141323686D01*
X145033142Y-141375992D01*
X145100133Y-141456182D01*
X145109344Y-141465995D01*
X145165408Y-141540961D01*
X145202075Y-141638385D01*
X145225161Y-141783244D01*
X145240479Y-142000515D01*
X145242283Y-142037039D01*
X145263921Y-142489610D01*
X144930177Y-142489610D01*
X144596433Y-142489610D01*
X144596433Y-142194025D01*
X144584187Y-141987323D01*
X144541743Y-141843961D01*
X144491981Y-141765652D01*
X144387530Y-141632864D01*
X143433648Y-141632864D01*
X142479766Y-141632864D01*
X142479766Y-142061237D01*
X142479766Y-142489610D01*
X142152187Y-142489610D01*
X141824607Y-142489610D01*
X141824607Y-141104657D01*
X141824607Y-140641726D01*
X141824607Y-140221753D01*
X142479766Y-140221753D01*
X142479766Y-140641726D01*
X142484033Y-140839263D01*
X142495387Y-140996984D01*
X142511661Y-141088622D01*
X142517564Y-141099709D01*
X142577664Y-141110809D01*
X142722089Y-141118814D01*
X142934409Y-141123371D01*
X143198190Y-141124129D01*
X143497003Y-141120736D01*
X143498564Y-141120708D01*
X143835327Y-141113617D01*
X144085810Y-141105220D01*
X144264526Y-141094014D01*
X144385986Y-141078495D01*
X144464704Y-141057161D01*
X144515194Y-141028507D01*
X144531698Y-141013703D01*
X144597040Y-140895572D01*
X144621252Y-140704107D01*
X144621631Y-140669072D01*
X144611636Y-140499739D01*
X144573255Y-140392806D01*
X144502655Y-140318094D01*
X144452565Y-140284156D01*
X144388268Y-140259211D01*
X144294659Y-140241897D01*
X144156633Y-140230857D01*
X143959085Y-140224733D01*
X143686909Y-140222164D01*
X143431723Y-140221753D01*
X142479766Y-140221753D01*
X141824607Y-140221753D01*
X141824607Y-139719705D01*
X141950453Y-139688119D01*
X142033609Y-139680336D01*
X142202650Y-139674760D01*
X142442692Y-139671513D01*
X142738849Y-139670716D01*
X143076234Y-139672490D01*
G37*
%TD*%
D11*
%TO.C,R24*%
X137507500Y-79620000D03*
X139332500Y-79620000D03*
%TD*%
D12*
%TO.C,C22*%
X143825000Y-109387500D03*
X143825000Y-111112500D03*
%TD*%
D13*
%TO.C,C2*%
X113982501Y-98740000D03*
D14*
X112257499Y-98740000D03*
%TD*%
D12*
%TO.C,C26*%
X112350000Y-110737500D03*
X112350000Y-112462500D03*
%TD*%
%TO.C,C41*%
X100450000Y-82512500D03*
X100450000Y-84237500D03*
%TD*%
D13*
%TO.C,C46*%
X97237500Y-110550000D03*
X98962500Y-110550000D03*
%TD*%
D14*
%TO.C,C1*%
X113952501Y-97210000D03*
X112227499Y-97210000D03*
%TD*%
D15*
%TO.C,R28*%
X136000000Y-88857500D03*
X136000000Y-90682500D03*
%TD*%
D16*
%TO.C,R40*%
X131550000Y-80332500D03*
X131550000Y-78507500D03*
%TD*%
D11*
%TO.C,R58*%
X92387500Y-72730000D03*
X94212500Y-72730000D03*
%TD*%
D17*
%TO.C,Q1*%
X132691000Y-103824000D03*
D18*
X139240000Y-106110000D03*
D17*
X132691000Y-108396000D03*
%TD*%
D12*
%TO.C,C47*%
X100380000Y-66587500D03*
X100380000Y-68312500D03*
%TD*%
D19*
%TO.C,TP7*%
X85520000Y-122460000D03*
%TD*%
D20*
%TO.C,H3*%
X153330000Y-63900000D03*
%TD*%
%TO.C,H2*%
X78830000Y-136900000D03*
%TD*%
D14*
%TO.C,C16*%
X102262500Y-86025000D03*
X100537500Y-86025000D03*
%TD*%
D12*
%TO.C,C42*%
X100475000Y-88012500D03*
X100475000Y-89737500D03*
%TD*%
D14*
%TO.C,C24*%
X113800000Y-109175000D03*
X112075000Y-109175000D03*
%TD*%
D12*
%TO.C,C44*%
X100475000Y-98762500D03*
X100475000Y-100487500D03*
%TD*%
%TO.C,C43*%
X100425000Y-93412500D03*
X100425000Y-95137500D03*
%TD*%
D21*
%TO.C,C31*%
X142382500Y-95602500D03*
X142382500Y-93877500D03*
%TD*%
D11*
%TO.C,R62*%
X92447500Y-94230000D03*
X94272500Y-94230000D03*
%TD*%
D21*
%TO.C,C37*%
X143802500Y-80442500D03*
X143802500Y-78717500D03*
%TD*%
D12*
%TO.C,C34*%
X142332500Y-87407500D03*
X142332500Y-89132500D03*
%TD*%
D22*
%TO.C,R9*%
X92650000Y-96930000D03*
X98750000Y-96930000D03*
%TD*%
D23*
%TO.C,J1*%
X76010000Y-82570000D03*
D24*
X76010000Y-92570000D03*
D25*
X85690000Y-82570000D03*
X85690000Y-85070000D03*
X85690000Y-87570000D03*
X85690000Y-90070000D03*
D26*
X85690000Y-92570000D03*
D25*
X83190000Y-92570000D03*
X83190000Y-90070000D03*
X83190000Y-87570000D03*
X83190000Y-85070000D03*
X83190000Y-82570000D03*
%TD*%
D14*
%TO.C,C19*%
X102237500Y-102180000D03*
X100512500Y-102180000D03*
%TD*%
D22*
%TO.C,R11*%
X92660000Y-107650000D03*
X98760000Y-107650000D03*
%TD*%
D16*
%TO.C,R25*%
X134530000Y-98962500D03*
X134530000Y-97137500D03*
%TD*%
D22*
%TO.C,R7*%
X92650000Y-86150000D03*
X98750000Y-86150000D03*
%TD*%
D27*
%TO.C,J4*%
X156020000Y-97720000D03*
D28*
X156020000Y-80220000D03*
D29*
X148840000Y-80220000D03*
D30*
X148840000Y-82720000D03*
X148840000Y-85220000D03*
X148840000Y-87720000D03*
X148840000Y-90220000D03*
X148840000Y-92720000D03*
X148840000Y-95220000D03*
X148840000Y-97720000D03*
%TD*%
D11*
%TO.C,R14*%
X115375000Y-104900000D03*
X117200000Y-104900000D03*
%TD*%
D12*
%TO.C,C32*%
X143872500Y-92225000D03*
X143872500Y-93950000D03*
%TD*%
D31*
%TO.C,TR2*%
X115250000Y-117580000D03*
X112710000Y-117580000D03*
X110170000Y-117580000D03*
X110170000Y-129580000D03*
X112710000Y-129580000D03*
X115250000Y-129580000D03*
%TD*%
D22*
%TO.C,R4*%
X92590000Y-70070000D03*
X98690000Y-70070000D03*
%TD*%
D12*
%TO.C,C10*%
X123650000Y-110787500D03*
X123650000Y-112512500D03*
%TD*%
D11*
%TO.C,R19*%
X137577500Y-92180000D03*
X139402500Y-92180000D03*
%TD*%
%TO.C,R60*%
X92417500Y-83480000D03*
X94242500Y-83480000D03*
%TD*%
D16*
%TO.C,R36*%
X131550000Y-90410000D03*
X131550000Y-88585000D03*
%TD*%
D13*
%TO.C,C25*%
X115437500Y-109162500D03*
X117162500Y-109162500D03*
%TD*%
D16*
%TO.C,R31*%
X136000000Y-83722500D03*
X136000000Y-81897500D03*
%TD*%
D31*
%TO.C,TR1*%
X126160000Y-117550000D03*
X123620000Y-117550000D03*
X121080000Y-117550000D03*
X121080000Y-129550000D03*
X123620000Y-129550000D03*
X126160000Y-129550000D03*
%TD*%
D14*
%TO.C,C15*%
X102212500Y-80750000D03*
X100487500Y-80750000D03*
%TD*%
D19*
%TO.C,TP1*%
X79710000Y-129320000D03*
%TD*%
D11*
%TO.C,R59*%
X92427500Y-78120000D03*
X94252500Y-78120000D03*
%TD*%
%TO.C,R63*%
X92437500Y-99620000D03*
X94262500Y-99620000D03*
%TD*%
D15*
%TO.C,R39*%
X131520000Y-81837500D03*
X131520000Y-83662500D03*
%TD*%
D16*
%TO.C,R29*%
X134410000Y-88872500D03*
X134410000Y-87047500D03*
%TD*%
D15*
%TO.C,R35*%
X131530000Y-91925000D03*
X131530000Y-93750000D03*
%TD*%
D11*
%TO.C,R66*%
X92377500Y-67370000D03*
X94202500Y-67370000D03*
%TD*%
D19*
%TO.C,TP6*%
X113650000Y-68770000D03*
%TD*%
D15*
%TO.C,R3*%
X120600000Y-110687500D03*
X120600000Y-112512500D03*
%TD*%
D14*
%TO.C,C14*%
X102212500Y-75425000D03*
X100487500Y-75425000D03*
%TD*%
D20*
%TO.C,H1*%
X153330000Y-136900000D03*
%TD*%
D11*
%TO.C,R18*%
X137607500Y-96460000D03*
X139432500Y-96460000D03*
%TD*%
D21*
%TO.C,C5*%
X122060000Y-98102500D03*
X122060000Y-96377500D03*
%TD*%
D11*
%TO.C,R23*%
X137495000Y-81110000D03*
X139320000Y-81110000D03*
%TD*%
D13*
%TO.C,C8*%
X122100000Y-109162500D03*
X123825000Y-109162500D03*
%TD*%
D11*
%TO.C,R64*%
X92427500Y-104970000D03*
X94252500Y-104970000D03*
%TD*%
D22*
%TO.C,R8*%
X92650000Y-91550000D03*
X98750000Y-91550000D03*
%TD*%
D14*
%TO.C,C9*%
X120500000Y-109162500D03*
X118775000Y-109162500D03*
%TD*%
D15*
%TO.C,R37*%
X130030000Y-86967500D03*
X130030000Y-88792500D03*
%TD*%
%TO.C,R33*%
X130020000Y-97195000D03*
X130020000Y-99020000D03*
%TD*%
D14*
%TO.C,C17*%
X102212500Y-91525000D03*
X100487500Y-91525000D03*
%TD*%
D11*
%TO.C,R20*%
X137567500Y-90710000D03*
X139392500Y-90710000D03*
%TD*%
%TO.C,R65*%
X92457500Y-110340000D03*
X94282500Y-110340000D03*
%TD*%
D32*
%TO.C,J3*%
X114005000Y-139530000D03*
X111505000Y-139530000D03*
D33*
X111505000Y-132350000D03*
D34*
X114005000Y-132350000D03*
%TD*%
D22*
%TO.C,R10*%
X92660000Y-102300000D03*
X98760000Y-102300000D03*
%TD*%
D12*
%TO.C,C36*%
X143822500Y-82117500D03*
X143822500Y-83842500D03*
%TD*%
D14*
%TO.C,C20*%
X102237500Y-107375000D03*
X100512500Y-107375000D03*
%TD*%
%TO.C,C18*%
X102225000Y-96875000D03*
X100500000Y-96875000D03*
%TD*%
D11*
%TO.C,R22*%
X137487500Y-85260000D03*
X139312500Y-85260000D03*
%TD*%
D15*
%TO.C,R2*%
X122087500Y-110737500D03*
X122087500Y-112562500D03*
%TD*%
D16*
%TO.C,R34*%
X130020000Y-95690000D03*
X130020000Y-93865000D03*
%TD*%
D11*
%TO.C,R17*%
X137617500Y-97920000D03*
X139442500Y-97920000D03*
%TD*%
D32*
%TO.C,J2*%
X126825000Y-139545000D03*
X121825000Y-139545000D03*
D33*
X121825000Y-132365000D03*
D34*
X124325000Y-132365000D03*
X126825000Y-132365000D03*
%TD*%
D14*
%TO.C,C29*%
X126802500Y-94000000D03*
X125077500Y-94000000D03*
%TD*%
D15*
%TO.C,R26*%
X134520000Y-93817500D03*
X134520000Y-95642500D03*
%TD*%
D35*
%TO.C,IC1*%
X121250000Y-82762000D03*
X120750000Y-82762000D03*
X120250000Y-82762000D03*
X119750000Y-82762000D03*
X119250000Y-82762000D03*
X118750000Y-82762000D03*
X118250000Y-82762000D03*
X117750000Y-82762000D03*
X117250000Y-82762000D03*
X116750000Y-82762000D03*
X116250000Y-82762000D03*
X115750000Y-82762000D03*
X115250000Y-82762000D03*
X114750000Y-82762000D03*
X114250000Y-82762000D03*
X113750000Y-82762000D03*
D36*
X111762000Y-84750000D03*
X111762000Y-85250000D03*
X111762000Y-85750000D03*
X111762000Y-86250000D03*
X111762000Y-86750000D03*
X111762000Y-87250000D03*
X111762000Y-87750000D03*
X111762000Y-88250000D03*
X111762000Y-88750000D03*
X111762000Y-89250000D03*
X111762000Y-89750000D03*
X111762000Y-90250000D03*
X111762000Y-90750000D03*
X111762000Y-91250000D03*
X111762000Y-91750000D03*
X111762000Y-92250000D03*
D35*
X113750000Y-94238000D03*
X114250000Y-94238000D03*
X114750000Y-94238000D03*
X115250000Y-94238000D03*
X115750000Y-94238000D03*
X116250000Y-94238000D03*
X116750000Y-94238000D03*
X117250000Y-94238000D03*
X117750000Y-94238000D03*
X118250000Y-94238000D03*
X118750000Y-94238000D03*
X119250000Y-94238000D03*
X119750000Y-94238000D03*
X120250000Y-94238000D03*
X120750000Y-94238000D03*
X121250000Y-94238000D03*
D36*
X123238000Y-92250000D03*
X123238000Y-91750000D03*
X123238000Y-91250000D03*
X123238000Y-90750000D03*
X123238000Y-90250000D03*
X123238000Y-89750000D03*
X123238000Y-89250000D03*
X123238000Y-88750000D03*
X123238000Y-88250000D03*
X123238000Y-87750000D03*
X123238000Y-87250000D03*
X123238000Y-86750000D03*
X123238000Y-86250000D03*
X123238000Y-85750000D03*
X123238000Y-85250000D03*
X123238000Y-84750000D03*
D37*
X117500000Y-88500000D03*
%TD*%
D11*
%TO.C,R61*%
X92437500Y-88820000D03*
X94262500Y-88820000D03*
%TD*%
D13*
%TO.C,C6*%
X125070000Y-92480000D03*
X126795000Y-92480000D03*
%TD*%
D12*
%TO.C,C40*%
X100450000Y-77262500D03*
X100450000Y-78987500D03*
%TD*%
D38*
%TO.C,R1*%
X120587500Y-104850000D03*
X118762500Y-104850000D03*
%TD*%
D13*
%TO.C,C21*%
X100512500Y-108850000D03*
X102237500Y-108850000D03*
%TD*%
D22*
%TO.C,R67*%
X92550000Y-64660000D03*
X98650000Y-64660000D03*
%TD*%
D20*
%TO.C,H4*%
X78830000Y-63900000D03*
%TD*%
D14*
%TO.C,C21*%
X102212500Y-70120000D03*
X100487500Y-70120000D03*
%TD*%
D21*
%TO.C,C33*%
X143862500Y-90650000D03*
X143862500Y-88925000D03*
%TD*%
D15*
%TO.C,R30*%
X134430000Y-83697500D03*
X134430000Y-85522500D03*
%TD*%
D19*
%TO.C,TP5*%
X131470000Y-71030000D03*
%TD*%
D16*
%TO.C,R38*%
X130030000Y-85452500D03*
X130030000Y-83627500D03*
%TD*%
D11*
%TO.C,R21*%
X137475000Y-86750000D03*
X139300000Y-86750000D03*
%TD*%
D12*
%TO.C,C30*%
X142392500Y-97205000D03*
X142392500Y-98930000D03*
%TD*%
D14*
%TO.C,C38*%
X100472500Y-61910000D03*
X98747500Y-61910000D03*
%TD*%
D15*
%TO.C,R16*%
X115362500Y-110650000D03*
X115362500Y-112475000D03*
%TD*%
D22*
%TO.C,R5*%
X92620000Y-75450000D03*
X98720000Y-75450000D03*
%TD*%
D38*
%TO.C,R57*%
X94165000Y-61940000D03*
X92340000Y-61940000D03*
%TD*%
D21*
%TO.C,C23*%
X131540000Y-100792500D03*
X131540000Y-99067500D03*
%TD*%
D15*
%TO.C,R12*%
X143825000Y-102537500D03*
X143825000Y-104362500D03*
%TD*%
D12*
%TO.C,C39*%
X100450000Y-71857500D03*
X100450000Y-73582500D03*
%TD*%
D15*
%TO.C,R13*%
X143825000Y-105937500D03*
X143825000Y-107762500D03*
%TD*%
D12*
%TO.C,C7*%
X120600000Y-96387500D03*
X120600000Y-98112500D03*
%TD*%
D21*
%TO.C,C3*%
X125520000Y-98122500D03*
X125520000Y-96397500D03*
%TD*%
D14*
%TO.C,C13*%
X102122500Y-64730000D03*
X100397500Y-64730000D03*
%TD*%
D16*
%TO.C,R27*%
X136030000Y-94052500D03*
X136030000Y-92227500D03*
%TD*%
D12*
%TO.C,C45*%
X100500000Y-104112500D03*
X100500000Y-105837500D03*
%TD*%
D39*
%TO.C,C4*%
X123810000Y-98480000D03*
X123810000Y-96405000D03*
%TD*%
D22*
%TO.C,R6*%
X92630000Y-80810000D03*
X98730000Y-80810000D03*
%TD*%
D15*
%TO.C,R15*%
X113875000Y-110675000D03*
X113875000Y-112500000D03*
%TD*%
%TO.C,R32*%
X135970000Y-78507500D03*
X135970000Y-80332500D03*
%TD*%
D21*
%TO.C,C35*%
X142332500Y-85772500D03*
X142332500Y-84047500D03*
%TD*%
M02*
